<?xml version="1.0" encoding="UTF-8" standalone="no"?>
<!DOCTYPE svg PUBLIC "-//W3C//DTD SVG 1.1//EN" "http://www.w3.org/Graphics/SVG/1.1/DTD/svg11.dtd">
<svg xmlns="http://www.w3.org/2000/svg" version="1.1" viewBox="0.00 0.00 74.00 24.00">
<path fill="#000000" d="
  M 13.14 4.87
  C 12.98 3.98 13.09 3.29 13.82 2.69
  Q 17.81 -0.59 23.10 0.54
  Q 23.62 0.65 23.62 1.18
  L 23.62 23.05
  Q 23.62 23.74 22.93 23.74
  L 16.58 23.75
  Q 15.86 23.76 15.36 23.25
  L 11.10 18.96
  Q 10.49 18.35 10.50 19.21
  L 10.51 20.75
  Q 10.51 21.31 10.07 21.64
  Q 6.15 24.55 0.78 23.66
  Q 0.25 23.57 0.25 23.03
  L 0.25 0.94
  Q 0.25 0.39 0.81 0.39
  L 7.45 0.37
  A 1.11 1.09 -22.0 0 1 8.23 0.69
  L 12.61 5.14
  Q 13.32 5.85 13.14 4.87
  Z
  M 18.81 1.88
  A 0.31 0.31 0.0 0 0 18.50 2.19
  L 18.51 12.83
  A 0.31 0.31 0.0 0 1 17.97 13.04
  L 7.58 2.00
  A 0.31 0.31 0.0 0 0 7.36 1.91
  L 3.56 1.81
  A 0.31 0.31 0.0 0 0 3.33 2.34
  L 21.62 20.62
  A 0.31 0.31 0.0 0 0 22.15 20.40
  L 22.12 2.18
  A 0.31 0.31 0.0 0 0 21.81 1.87
  L 18.81 1.88
  Z
  M 14.64 7.08
  A 0.32 0.32 0.0 0 0 14.72 7.29
  L 16.45 9.22
  A 0.32 0.32 0.0 0 0 17.01 9.00
  L 17.00 2.92
  A 0.32 0.32 0.0 0 0 16.49 2.67
  L 14.71 4.03
  A 0.32 0.32 0.0 0 0 14.58 4.29
  L 14.64 7.08
  Z
  M 5.09 22.22
  A 0.30 0.30 0.0 0 0 5.39 21.92
  L 5.33 11.68
  A 0.30 0.30 0.0 0 1 5.85 11.47
  L 16.50 22.13
  A 0.30 0.30 0.0 0 0 16.71 22.22
  L 20.40 22.26
  A 0.30 0.30 0.0 0 0 20.62 21.75
  L 2.24 3.36
  A 0.30 0.30 0.0 0 0 1.73 3.58
  L 1.76 21.96
  A 0.30 0.30 0.0 0 0 2.06 22.26
  L 5.09 22.22
  Z
  M 8.96 17.02
  A 0.30 0.30 0.0 0 0 8.88 16.83
  L 7.36 15.16
  A 0.30 0.30 0.0 0 0 6.84 15.37
  L 6.86 21.36
  A 0.30 0.30 0.0 0 0 7.32 21.61
  L 8.87 20.58
  A 0.30 0.30 0.0 0 0 9.01 20.33
  L 8.96 17.02
  Z"
/>
<path fill="#000000" d="
  M 44.73 13.08
  L 45.72 13.13
  Q 46.42 13.17 46.75 13.78
  C 47.76 15.64 49.31 17.03 49.17 19.36
  Q 49.05 21.26 49.14 23.04
  Q 49.17 23.75 48.46 23.75
  L 26.25 23.75
  Q 25.75 23.75 25.75 23.25
  L 25.75 16.49
  Q 25.75 15.87 26.19 15.43
  L 30.07 11.56
  Q 31.43 10.20 29.64 10.65
  Q 29.07 10.80 28.49 10.64
  Q 27.96 10.50 27.70 10.02
  C 26.95 8.61 25.68 7.11 25.73 5.46
  Q 25.80 3.23 25.70 0.99
  Q 25.67 0.39 26.28 0.39
  L 48.63 0.38
  A 0.48 0.48 0.0 0 1 49.11 0.86
  L 49.14 7.48
  A 1.19 1.16 -22.2 0 1 48.77 8.33
  L 44.49 12.45
  Q 43.88 13.04 44.73 13.08
  Z
  M 27.28 5.19
  A 0.31 0.31 0.0 0 0 27.59 5.50
  L 37.65 5.48
  A 0.31 0.31 0.0 0 1 37.87 6.01
  L 27.38 16.49
  A 0.31 0.31 0.0 0 0 27.29 16.71
  L 27.23 20.50
  A 0.31 0.31 0.0 0 0 27.76 20.72
  L 46.12 2.39
  A 0.31 0.31 0.0 0 0 45.90 1.86
  L 27.55 1.86
  A 0.31 0.31 0.0 0 0 27.24 2.17
  L 27.28 5.19
  Z
  M 47.64 18.91
  A 0.31 0.31 0.0 0 0 47.32 18.59
  L 36.60 18.66
  A 0.31 0.31 0.0 0 1 36.39 18.12
  L 47.50 7.60
  A 0.31 0.31 0.0 0 0 47.59 7.38
  L 47.66 3.62
  A 0.31 0.31 0.0 0 0 47.13 3.39
  L 28.75 21.74
  A 0.31 0.31 0.0 0 0 28.97 22.27
  L 47.29 22.23
  A 0.31 0.31 0.0 0 0 47.60 21.92
  L 47.64 18.91
  Z
  M 32.30 9.11
  A 0.35 0.35 0.0 0 0 32.53 9.03
  L 34.17 7.60
  A 0.35 0.35 0.0 0 0 33.94 6.99
  L 28.18 7.03
  A 0.35 0.35 0.0 0 0 27.89 7.58
  L 28.88 8.99
  A 0.35 0.35 0.0 0 0 29.17 9.14
  L 32.30 9.11
  Z
  M 42.48 14.59
  A 0.33 0.33 0.0 0 0 42.25 14.68
  L 40.24 16.56
  A 0.33 0.33 0.0 0 0 40.47 17.13
  L 46.45 17.14
  A 0.33 0.33 0.0 0 0 46.73 16.63
  L 45.53 14.77
  A 0.33 0.33 0.0 0 0 45.25 14.62
  L 42.48 14.59
  Z"
/>
<path fill="#000000" d="
  M 74.00 2.36
  L 74.00 9.59
  L 64.47 23.35
  Q 64.19 23.75 63.69 23.75
  L 58.17 23.75
  Q 57.55 23.75 57.36 23.15
  L 50.56 1.23
  Q 50.38 0.64 50.99 0.56
  Q 56.02 -0.11 61.18 2.09
  C 62.54 2.67 62.77 4.35 63.04 5.64
  Q 63.32 6.96 64.09 5.85
  L 67.36 1.19
  Q 67.66 0.76 68.17 0.65
  Q 73.23 -0.50 74.00 2.36
  Z
  M 56.00 2.26
  A 0.33 0.33 0.0 0 0 55.69 2.03
  L 52.82 1.99
  A 0.33 0.33 0.0 0 0 52.50 2.41
  L 58.14 20.65
  A 0.33 0.33 0.0 0 0 58.73 20.73
  L 60.56 17.99
  A 0.33 0.33 0.0 0 0 60.61 17.71
  L 56.00 2.26
  Z
  M 71.39 2.49
  A 0.33 0.33 0.0 0 0 71.11 1.97
  L 68.68 2.05
  A 0.33 0.33 0.0 0 0 68.42 2.20
  L 60.96 13.10
  A 0.33 0.33 0.0 0 0 60.91 13.37
  L 61.52 15.71
  A 0.33 0.33 0.0 0 0 62.11 15.81
  L 71.39 2.49
  Z
  M 57.77 2.92
  L 60.13 10.75
  A 0.15 0.15 0.0 0 0 60.32 10.85
  L 60.45 10.81
  A 3.41 2.53 73.2 0 0 61.89 6.82
  L 61.41 5.23
  A 3.41 2.53 73.2 0 0 58.00 2.69
  L 57.87 2.74
  A 0.15 0.15 0.0 0 0 57.77 2.92
  Z
  M 59.74 21.80
  A 0.31 0.31 0.0 0 0 60.01 22.29
  L 63.32 22.19
  A 0.31 0.31 0.0 0 0 63.57 22.06
  L 72.29 9.57
  A 0.31 0.31 0.0 0 0 72.34 9.40
  L 72.47 4.56
  A 0.31 0.31 0.0 0 0 71.91 4.38
  L 59.74 21.80
  Z"
/>
</svg>
